#!OML:ASF X:\für Bonn\!DataBase\2005_08_12_Daniel\c3d\Daniel.ASF
:FULLY-SPECIFIED
:DEGREES
218
root 5.36207 16.7315 -5.77536 -181.29 -2.09472 547.259
lowerback 11.9387 -0.122532 -1.57381
upperback 1.85615 -0.678419 -1.70061
thorax -4.75433 -0.41628 -0.774717
lowerneck -3.76077 10.1521 -0.218899
upperneck 3.19315 13.6859 -11.9335
head 2.62377 6.3278 -3.34566
rclavicle -1.19271e-015 4.77083e-015
rhumerus -56.1885 14.9785 -104.158
rradius 86.1966
rwrist 0.215294
rhand -28.544 34.6224
rfingers 7.12502
rthumb -1.91133 4.65123
lclavicle -1.19271e-015 4.77083e-015
lhumerus -66.4117 4.20738 92.5203
lradius 112.546
lwrist 18.536
lhand -12.128 -12.4108
lfingers 7.12502
lthumb 13.9337 17.1024
rfemur 4.87937 -9.83253 10.9855
rtibia 73.3316
rfoot -1.3664 -3.04939
rtoes -18.3004
lfemur -21.6939 4.60105 -36.088
ltibia 45.0645
lfoot -23.7881 10.6947
ltoes 12.1701
219
root 5.40863 16.6334 -6.0392 -181.556 -2.64784 546.66
lowerback 12.3216 -0.138918 -2.35198
upperback 2.03608 -0.852722 -1.87214
thorax -4.77085 -0.505756 -0.484753
lowerneck -3.52785 10.2473 -0.0129486
upperneck 2.87323 13.7704 -12.3365
head 2.53472 6.38246 -3.53038
rclavicle 1.19271e-015 1.59028e-014
rhumerus -54.999 13.4018 -103.338
rradius 83.5051
rwrist 0.732952
rhand -29.2591 34.6857
rfingers 7.12502
rthumb -2.60189 4.7218
lclavicle 1.19271e-015 1.59028e-014
lhumerus -64.4072 4.76863 92.6603
lradius 111.954
lwrist 18.4199
lhand -13.1755 -12.3096
lfingers 7.12502
lthumb 12.924 17.2702
rfemur 3.01892 -9.82533 9.96014
rtibia 76.361
rfoot -2.14116 -3.16945
rtoes -15.3318
lfemur -20.8212 4.2563 -36.7308
ltibia 46.1894
lfoot -25.5291 11.1322
ltoes 11.2837
220
root 5.44303 16.5448 -6.30389 -181.787 -3.23413 546.002
lowerback 12.6752 -0.161393 -3.11872
upperback 2.19101 -1.0386 -2.04561
thorax -4.79354 -0.601511 -0.200851
lowerneck -3.20132 10.3656 0.145342
upperneck 2.58238 13.882 -12.7296
head 2.43647 6.45159 -3.708
rclavicle 8.34896e-015 -4.77083e-015
rhumerus -54.0794 11.7558 -102.413
rradius 80.6276
rwrist 1.3267
rhand -30.0654 34.8461
rfingers 7.12502
rthumb -3.38066 4.89318
lclavicle 8.34896e-015 -4.77083e-015
lhumerus -62.4033 5.38701 92.8912
lradius 111.534
lwrist 18.3484
lhand -14.0659 -12.1169
lfingers 7.12502
lthumb 12.0656 17.5153
rfemur 1.14826 -9.92213 8.78476
rtibia 79.1141
rfoot -2.84867 -2.94162
rtoes -12.5996
lfemur -19.8766 3.97787 -37.3796
ltibia 47.1534
lfoot -27.212 11.2144
ltoes 10.7138
221
root 5.46676 16.4665 -6.56939 -181.941 -3.80176 545.361
lowerback 12.9495 -0.214293 -3.78044
upperback 2.32998 -1.2515 -2.23508
thorax -4.78692 -0.712632 0.0114081
lowerneck -3.05126 10.5068 0.246002
upperneck 2.45488 14.049 -13.045
head 2.41796 6.53491 -3.83519
rclavicle -1.09332e-014 3.33958e-014
rhumerus -53.3837 10.1062 -101.463
rradius 77.534
rwrist 2.05592
rhand -31.1144 35.196
rfingers 7.12502
rthumb -4.39362 5.26156
lclavicle -1.09332e-014 3.33958e-014
lhumerus -60.3551 5.97188 93.0911
lradius 111.293
lwrist 18.4583
lhand -14.8509 -11.8399
lfingers 7.12502
lthumb 11.3086 17.8352
rfemur -0.789658 -10.01 7.64883
rtibia 81.5418
rfoot -3.53256 -2.56173
rtoes -10.2125
lfemur -18.9178 3.74461 -37.9693
ltibia 47.897
lfoot -28.6951 11.0488
ltoes 10.5252
222
root 5.48041 16.3985 -6.83503 -182.083 -4.34994 544.81
lowerback 13.1933 -0.268766 -4.26173
upperback 2.45082 -1.43909 -2.40732
thorax -4.78333 -0.812635 0.136058
lowerneck -2.96028 10.6607 0.222771
upperneck 2.41104 14.2447 -13.2536
head 2.42022 6.62721 -3.8984
rclavicle -1.13307e-014 -6.83819e-014
rhumerus -52.7939 8.43084 -100.442
rradius 74.3826
rwrist 2.96134
rhand -32.3807 35.3921
rfingers 7.12502
rthumb -5.61626 5.48652
lclavicle -1.13307e-014 -6.83819e-014
lhumerus -58.3346 6.58071 93.321
lradius 111.067
lwrist 18.6965
lhand -15.4409 -11.7655
lfingers 7.12502
lthumb 10.7395 17.94
rfemur -2.77368 -9.96491 6.76065
rtibia 83.6156
rfoot -4.22962 -2.3515
rtoes -8.48898
lfemur -17.8875 3.70388 -38.4322
ltibia 48.418
lfoot -29.8061 10.6351
ltoes 10.4148
223
root 5.48344 16.3566 -7.10473 -182.202 -4.91036 544.391
lowerback 13.4455 -0.356215 -4.54942
upperback 2.52587 -1.63976 -2.56034
thorax -4.83436 -0.917438 0.17518
lowerneck -2.84651 10.825 0.140919
upperneck 2.45973 14.4631 -13.3428
head 2.43474 6.73033 -3.90871
rclavicle 1.80894e-014 9.54166e-015
rhumerus -52.3978 6.80676 -99.4012
rradius 71.3969
rwrist 3.74113
rhand -33.4927 35.4755
rfingers 7.12502
rthumb -6.68982 5.60121
lclavicle 1.80894e-014 9.54166e-015
lhumerus -56.3523 7.18272 93.5544
lradius 111.105
lwrist 19.0022
lhand -15.9179 -11.5828
lfingers 7.12502
lthumb 10.2793 18.146
rfemur -4.98028 -9.74373 6.29531
rtibia 85.3521
rfoot -4.69853 -2.38386
rtoes -6.62355
lfemur -16.6788 3.66743 -38.7105
ltibia 48.6355
lfoot -30.6114 10.1488
ltoes 10.5263
224
root 5.47726 16.3417 -7.3789 -182.258 -5.47948 544.105
lowerback 13.6033 -0.483563 -4.68317
upperback 2.59256 -1.85866 -2.68739
thorax -4.84416 -1.03129 0.157187
lowerneck -2.75637 11.0207 0.0617956
upperneck 2.56715 14.7329 -13.3459
head 2.46896 6.85927 -3.88449
rclavicle 7.15625e-015 6.52014e-014
rhumerus -52.0678 5.27821 -98.3376
rradius 68.4724
rwrist 4.57094
rhand -34.7043 35.5338
rfingers 7.12502
rthumb -7.8594 5.69984
lclavicle 7.15625e-015 6.52014e-014
lhumerus -54.4816 7.87094 93.8343
lradius 111.392
lwrist 19.3506
lhand -16.2245 -11.4186
lfingers 7.12502
lthumb 9.98361 18.3246
rfemur -7.25288 -9.36059 6.20895
rtibia 86.6855
rfoot -5.21202 -2.53824
rtoes -5.34098
lfemur -15.3885 3.54988 -38.8233
ltibia 48.6137
lfoot -31.2346 9.58348
ltoes 10.7484
225
root 5.465 16.3413 -7.6515 -182.283 -6.05484 544.028
lowerback 13.7006 -0.639352 -4.56873
upperback 2.66139 -2.06459 -2.76392
thorax -4.82482 -1.13928 0.0497759
lowerneck -2.76465 11.2086 0.0346451
upperneck 2.77755 15.0088 -13.3393
head 2.55999 6.9831 -3.85792
rclavicle 6.75868e-015 5.40694e-014
rhumerus -51.7783 3.92269 -97.2619
rradius 65.8104
rwrist 5.07139
rhand -35.6073 35.3283
rfingers 7.12502
rthumb -8.73082 5.5289
lclavicle 6.75868e-015 5.40694e-014
lhumerus -52.9749 8.58141 94.2053
lradius 111.789
lwrist 19.6844
lhand -16.5361 -11.5994
lfingers 7.12502
lthumb 9.68299 18.158
rfemur -9.63751 -8.8993 6.53017
rtibia 87.7151
rfoot -5.71521 -2.62613
rtoes -5.73572
lfemur -14.0795 3.33545 -38.7113
ltibia 48.4474
lfoot -31.6462 9.0476
ltoes 10.8654
226
root 5.44986 16.3551 -7.92075 -182.216 -6.55611 543.964
lowerback 13.7278 -0.764404 -4.4524
upperback 2.68976 -2.22154 -2.83901
thorax -4.81236 -1.22049 -0.0667471
lowerneck -2.74608 11.4035 0.0496354
upperneck 2.95913 15.2911 -13.314
head 2.63892 7.11549 -3.83326
rclavicle 1.15295e-014 -2.06736e-014
rhumerus -51.5867 2.69472 -96.2187
rradius 63.3588
rwrist 5.43276
rhand -36.3778 35.0046
rfingers 7.12502
rthumb -9.47437 5.23757
lclavicle 1.15295e-014 -2.06736e-014
lhumerus -51.8769 9.08652 94.6761
lradius 112.288
lwrist 20.1175
lhand -16.9149 -12.0262
lfingers 7.12502
lthumb 9.31745 17.7479
rfemur -12.2477 -8.25029 7.01558
rtibia 88.482
rfoot -6.33129 -2.74522
rtoes -7.55311
lfemur -12.8992 3.17741 -38.555
ltibia 48.246
lfoot -31.8428 8.40527
ltoes 11.295
227
root 5.43702 16.3759 -8.18104 -181.951 -7.09303 543.956
lowerback 13.6149 -0.916876 -4.29992
upperback 2.63057 -2.38811 -2.88073
thorax -4.81569 -1.2995 -0.169698
lowerneck -2.74565 11.5996 0.0328324
upperneck 3.24596 15.5848 -13.2343
head 2.74927 7.24724 -3.78072
rclavicle 3.18055e-014 4.77083e-015
rhumerus -51.5189 1.72904 -95.2324
rradius 61.1121
rwrist 5.44081
rhand -36.9828 34.7543
rfingers 7.12502
rthumb -10.0581 5.01463
lclavicle 3.18055e-014 4.77083e-015
lhumerus -51.0115 9.28008 95.1724
lradius 112.81
lwrist 20.6615
lhand -17.4603 -12.5673
lfingers 7.12502
lthumb 8.79114 17.2296
rfemur -15.093 -7.54983 7.6749
rtibia 88.9904
rfoot -6.98576 -2.813
rtoes -9.48632
lfemur -12.0322 3.01154 -38.3126
ltibia 48.1034
lfoot -31.7177 7.67508
ltoes 11.6729
228
root 5.42431 16.4156 -8.45268 -181.644 -7.78361 544.017
lowerback 13.3346 -1.13464 -4.16406
upperback 2.58768 -2.62214 -2.85941
thorax -4.70531 -1.41077 -0.191488
lowerneck -2.756 11.8097 -0.0551878
upperneck 3.56897 15.8997 -13.1058
head 2.86342 7.38629 -3.69687
rclavicle 5.28767e-014 3.02153e-014
rhumerus -51.7036 0.924964 -94.2614
rradius 59.2973
rwrist 5.45545
rhand -37.2823 34.377
rfingers 7.12502
rthumb -10.347 4.65158
lclavicle 5.28767e-014 3.02153e-014
lhumerus -50.3269 9.33901 95.7201
lradius 113.411
lwrist 21.1407
lhand -18.0991 -13.1171
lfingers 7.12502
lthumb 8.17472 16.7048
rfemur -17.7101 -6.89534 8.43242
rtibia 89.0292
rfoot -7.65769 -2.79016
rtoes -10.519
lfemur -11.2088 2.8498 -37.9595
ltibia 48.0065
lfoot -31.2741 6.95051
ltoes 11.5263
229
root 5.41047 16.4703 -8.73218 -181.456 -8.65773 544.148
lowerback 13.0918 -1.40693 -3.97573
upperback 2.59905 -2.92261 -2.80617
thorax -4.55848 -1.55746 -0.199761
lowerneck -2.6802 12.0151 -0.285595
upperneck 3.77879 16.1908 -12.8968
head 2.89775 7.52368 -3.57107
rclavicle 3.26007e-014 -4.92986e-014
rhumerus -51.9331 0.282735 -93.3511
rradius 57.716
rwrist 5.33048
rhand -37.308 34.0056
rfingers 7.12502
rthumb -10.3718 4.28134
lclavicle 3.26007e-014 -4.92986e-014
lhumerus -49.675 9.1321 96.1927
lradius 113.998
lwrist 21.6385
lhand -18.6301 -13.5893
lfingers 7.12502
lthumb 7.66217 16.2519
rfemur -19.8891 -6.33204 9.25863
rtibia 88.5546
rfoot -8.33419 -2.75457
rtoes -10.8506
lfemur -10.2367 2.64917 -37.4647
ltibia 47.9246
lfoot -30.6747 6.15548
ltoes 11.2712
230
root 5.39219 16.5389 -9.01709 -181.324 -9.63351 544.372
lowerback 12.8658 -1.70518 -3.67081
upperback 2.61296 -3.24301 -2.75317
thorax -4.42523 -1.71477 -0.271955
lowerneck -2.58476 12.2057 -0.407533
upperneck 4.05192 16.4656 -12.6854
head 2.95846 7.65285 -3.46408
rclavicle -4.81059e-014 1.59028e-014
rhumerus -52.1293 -0.285281 -92.5484
rradius 55.9252
rwrist 5.28377
rhand -37.3246 33.9772
rfingers 7.12502
rthumb -10.3878 4.25379
lclavicle -4.81059e-014 1.59028e-014
lhumerus -49.2111 8.451 96.5218
lradius 114.715
lwrist 22.2601
lhand -19.2292 -13.8483
lfingers 7.12502
lthumb 7.08386 16.0131
rfemur -21.7425 -5.92686 10.1584
rtibia 87.5459
rfoot -9.01633 -2.57957
rtoes -11.4893
lfemur -9.20114 2.4671 -36.8209
ltibia 47.7929
lfoot -29.839 5.29556
ltoes 10.9404
